<mxfile host="app.diagrams.net" modified="2024-06-03T13:32:09.743Z" agent="Mozilla/5.0 (Windows NT 10.0; Win64; x64) AppleWebKit/537.36 (KHTML, like Gecko) Chrome/125.0.0.0 Safari/537.36" etag="5ddV8T69Ue2227RdReYE" version="24.4.13" type="device">
  <diagram name="Страница — 1" id="p_MdWPj_orA9W3qVLT3j">
    <mxGraphModel dx="2049" dy="1103" grid="1" gridSize="10" guides="1" tooltips="1" connect="1" arrows="1" fold="1" page="1" pageScale="1" pageWidth="827" pageHeight="1169" math="0" shadow="0">
      <root>
        <mxCell id="0" />
        <mxCell id="1" parent="0" />
        <mxCell id="bCE9dmYTB7Am4N8Ju9b3-7" value="" style="rounded=1;whiteSpace=wrap;html=1;" parent="1" vertex="1">
          <mxGeometry x="74" y="160" width="680" height="210" as="geometry" />
        </mxCell>
        <mxCell id="bCE9dmYTB7Am4N8Ju9b3-11" value="&lt;font style=&quot;font-size: 24px;&quot;&gt;Наши мастера&lt;/font&gt;" style="text;html=1;align=left;verticalAlign=middle;whiteSpace=wrap;rounded=0;" parent="1" vertex="1">
          <mxGeometry x="110" y="126" width="220" height="30" as="geometry" />
        </mxCell>
        <mxCell id="bCE9dmYTB7Am4N8Ju9b3-15" value="" style="rounded=1;whiteSpace=wrap;html=1;" parent="1" vertex="1">
          <mxGeometry x="674" y="180" width="80" height="170" as="geometry" />
        </mxCell>
        <mxCell id="bCE9dmYTB7Am4N8Ju9b3-18" value="" style="rounded=1;whiteSpace=wrap;html=1;shadow=0;" parent="1" vertex="1">
          <mxGeometry x="74" y="180" width="80" height="170" as="geometry" />
        </mxCell>
        <mxCell id="bCE9dmYTB7Am4N8Ju9b3-24" value="&lt;font style=&quot;font-size: 20px;&quot;&gt;Фото&lt;/font&gt;" style="rounded=1;whiteSpace=wrap;html=1;" parent="1" vertex="1">
          <mxGeometry x="684" y="190" width="70" height="90" as="geometry" />
        </mxCell>
        <mxCell id="bCE9dmYTB7Am4N8Ju9b3-25" value="&lt;font style=&quot;font-size: 20px;&quot;&gt;Фото&lt;/font&gt;" style="rounded=1;whiteSpace=wrap;html=1;" parent="1" vertex="1">
          <mxGeometry x="74" y="190" width="70" height="90" as="geometry" />
        </mxCell>
        <mxCell id="bCE9dmYTB7Am4N8Ju9b3-26" value="" style="group" parent="1" vertex="1" connectable="0">
          <mxGeometry x="338" y="180" width="140" height="170" as="geometry" />
        </mxCell>
        <mxCell id="bCE9dmYTB7Am4N8Ju9b3-28" value="" style="group" parent="bCE9dmYTB7Am4N8Ju9b3-26" vertex="1" connectable="0">
          <mxGeometry width="140" height="170" as="geometry" />
        </mxCell>
        <mxCell id="bCE9dmYTB7Am4N8Ju9b3-29" value="" style="group" parent="bCE9dmYTB7Am4N8Ju9b3-28" vertex="1" connectable="0">
          <mxGeometry width="140" height="170" as="geometry" />
        </mxCell>
        <mxCell id="bCE9dmYTB7Am4N8Ju9b3-14" value="" style="rounded=1;whiteSpace=wrap;html=1;" parent="bCE9dmYTB7Am4N8Ju9b3-29" vertex="1">
          <mxGeometry width="140" height="170" as="geometry" />
        </mxCell>
        <mxCell id="bCE9dmYTB7Am4N8Ju9b3-20" value="&lt;font style=&quot;font-size: 20px;&quot;&gt;Фото&lt;/font&gt;" style="rounded=1;whiteSpace=wrap;html=1;" parent="bCE9dmYTB7Am4N8Ju9b3-29" vertex="1">
          <mxGeometry x="6" y="10" width="130" height="90" as="geometry" />
        </mxCell>
        <mxCell id="bCE9dmYTB7Am4N8Ju9b3-67" value="ФИО" style="text;html=1;align=center;verticalAlign=middle;whiteSpace=wrap;rounded=0;" parent="bCE9dmYTB7Am4N8Ju9b3-29" vertex="1">
          <mxGeometry x="10" y="100" width="60" height="30" as="geometry" />
        </mxCell>
        <mxCell id="bCE9dmYTB7Am4N8Ju9b3-30" value="" style="group" parent="1" vertex="1" connectable="0">
          <mxGeometry x="504" y="180" width="140" height="170" as="geometry" />
        </mxCell>
        <mxCell id="bCE9dmYTB7Am4N8Ju9b3-31" value="" style="group" parent="bCE9dmYTB7Am4N8Ju9b3-30" vertex="1" connectable="0">
          <mxGeometry width="140" height="170" as="geometry" />
        </mxCell>
        <mxCell id="bCE9dmYTB7Am4N8Ju9b3-32" value="" style="group" parent="bCE9dmYTB7Am4N8Ju9b3-31" vertex="1" connectable="0">
          <mxGeometry width="140" height="170" as="geometry" />
        </mxCell>
        <mxCell id="bCE9dmYTB7Am4N8Ju9b3-33" value="" style="rounded=1;whiteSpace=wrap;html=1;" parent="bCE9dmYTB7Am4N8Ju9b3-32" vertex="1">
          <mxGeometry width="140" height="170" as="geometry" />
        </mxCell>
        <mxCell id="bCE9dmYTB7Am4N8Ju9b3-34" value="&lt;font style=&quot;font-size: 20px;&quot;&gt;Фото&lt;/font&gt;" style="rounded=1;whiteSpace=wrap;html=1;" parent="bCE9dmYTB7Am4N8Ju9b3-32" vertex="1">
          <mxGeometry x="6" y="10" width="130" height="90" as="geometry" />
        </mxCell>
        <mxCell id="bCE9dmYTB7Am4N8Ju9b3-68" value="ФИО" style="text;html=1;align=center;verticalAlign=middle;whiteSpace=wrap;rounded=0;" parent="bCE9dmYTB7Am4N8Ju9b3-32" vertex="1">
          <mxGeometry x="6" y="100" width="60" height="30" as="geometry" />
        </mxCell>
        <mxCell id="bCE9dmYTB7Am4N8Ju9b3-35" value="" style="group" parent="1" vertex="1" connectable="0">
          <mxGeometry x="174" y="180" width="140" height="170" as="geometry" />
        </mxCell>
        <mxCell id="bCE9dmYTB7Am4N8Ju9b3-36" value="" style="group" parent="bCE9dmYTB7Am4N8Ju9b3-35" vertex="1" connectable="0">
          <mxGeometry width="140" height="170" as="geometry" />
        </mxCell>
        <mxCell id="bCE9dmYTB7Am4N8Ju9b3-37" value="" style="group" parent="bCE9dmYTB7Am4N8Ju9b3-36" vertex="1" connectable="0">
          <mxGeometry width="140" height="170" as="geometry" />
        </mxCell>
        <mxCell id="bCE9dmYTB7Am4N8Ju9b3-38" value="" style="rounded=1;whiteSpace=wrap;html=1;" parent="bCE9dmYTB7Am4N8Ju9b3-37" vertex="1">
          <mxGeometry width="140" height="170" as="geometry" />
        </mxCell>
        <mxCell id="bCE9dmYTB7Am4N8Ju9b3-39" value="&lt;font style=&quot;font-size: 20px;&quot;&gt;Фото&lt;/font&gt;" style="rounded=1;whiteSpace=wrap;html=1;" parent="bCE9dmYTB7Am4N8Ju9b3-37" vertex="1">
          <mxGeometry x="6" y="10" width="130" height="90" as="geometry" />
        </mxCell>
        <mxCell id="bCE9dmYTB7Am4N8Ju9b3-66" value="ФИО" style="text;html=1;align=center;verticalAlign=middle;whiteSpace=wrap;rounded=0;" parent="bCE9dmYTB7Am4N8Ju9b3-37" vertex="1">
          <mxGeometry x="6" y="100" width="60" height="30" as="geometry" />
        </mxCell>
        <mxCell id="bCE9dmYTB7Am4N8Ju9b3-40" value="" style="rounded=1;whiteSpace=wrap;html=1;" parent="1" vertex="1">
          <mxGeometry x="74" y="430" width="680" height="210" as="geometry" />
        </mxCell>
        <mxCell id="bCE9dmYTB7Am4N8Ju9b3-41" value="&lt;font style=&quot;font-size: 24px;&quot;&gt;Работы&lt;/font&gt;" style="text;html=1;align=left;verticalAlign=middle;whiteSpace=wrap;rounded=0;" parent="1" vertex="1">
          <mxGeometry x="110" y="396" width="220" height="30" as="geometry" />
        </mxCell>
        <mxCell id="bCE9dmYTB7Am4N8Ju9b3-61" value="&lt;font style=&quot;font-size: 20px;&quot;&gt;Фото&lt;/font&gt;" style="rounded=1;whiteSpace=wrap;html=1;" parent="1" vertex="1">
          <mxGeometry x="143" y="450" width="170" height="170" as="geometry" />
        </mxCell>
        <mxCell id="bCE9dmYTB7Am4N8Ju9b3-62" value="&lt;font style=&quot;font-size: 20px;&quot;&gt;Фото&lt;/font&gt;" style="rounded=1;whiteSpace=wrap;html=1;" parent="1" vertex="1">
          <mxGeometry x="323" y="450" width="170" height="170" as="geometry" />
        </mxCell>
        <mxCell id="bCE9dmYTB7Am4N8Ju9b3-63" value="&lt;font style=&quot;font-size: 20px;&quot;&gt;Фото&lt;/font&gt;" style="rounded=1;whiteSpace=wrap;html=1;" parent="1" vertex="1">
          <mxGeometry x="504" y="450" width="170" height="170" as="geometry" />
        </mxCell>
        <mxCell id="bCE9dmYTB7Am4N8Ju9b3-64" value="" style="rounded=1;whiteSpace=wrap;html=1;" parent="1" vertex="1">
          <mxGeometry x="684" y="450" width="70" height="170" as="geometry" />
        </mxCell>
        <mxCell id="bCE9dmYTB7Am4N8Ju9b3-65" value="" style="rounded=1;whiteSpace=wrap;html=1;" parent="1" vertex="1">
          <mxGeometry x="74" y="450" width="60" height="170" as="geometry" />
        </mxCell>
        <mxCell id="UA4lRzashmr38mbabIqv-1" value="" style="group" vertex="1" connectable="0" parent="1">
          <mxGeometry width="827" height="90" as="geometry" />
        </mxCell>
        <mxCell id="UA4lRzashmr38mbabIqv-2" value="" style="group" vertex="1" connectable="0" parent="UA4lRzashmr38mbabIqv-1">
          <mxGeometry width="827" height="90" as="geometry" />
        </mxCell>
        <mxCell id="bCE9dmYTB7Am4N8Ju9b3-1" value="" style="rounded=0;whiteSpace=wrap;html=1;fillStyle=auto;fillColor=none;" parent="UA4lRzashmr38mbabIqv-2" vertex="1">
          <mxGeometry width="827" height="90" as="geometry" />
        </mxCell>
        <mxCell id="bCE9dmYTB7Am4N8Ju9b3-8" value="&lt;font style=&quot;font-size: 22px;&quot;&gt;ссылка&lt;/font&gt;" style="rounded=0;whiteSpace=wrap;html=1;" parent="UA4lRzashmr38mbabIqv-2" vertex="1">
          <mxGeometry x="640" y="15" width="120" height="60" as="geometry" />
        </mxCell>
        <mxCell id="UA4lRzashmr38mbabIqv-3" value="" style="group" vertex="1" connectable="0" parent="UA4lRzashmr38mbabIqv-1">
          <mxGeometry x="80" y="15" width="540" height="60" as="geometry" />
        </mxCell>
        <mxCell id="bCE9dmYTB7Am4N8Ju9b3-2" value="&lt;font style=&quot;font-size: 22px;&quot;&gt;логотип&lt;/font&gt;" style="rounded=0;whiteSpace=wrap;html=1;" parent="UA4lRzashmr38mbabIqv-3" vertex="1">
          <mxGeometry x="280" width="120" height="60" as="geometry" />
        </mxCell>
        <mxCell id="bCE9dmYTB7Am4N8Ju9b3-3" value="&lt;font style=&quot;font-size: 22px;&quot;&gt;ссылка&lt;/font&gt;" style="rounded=0;whiteSpace=wrap;html=1;" parent="UA4lRzashmr38mbabIqv-3" vertex="1">
          <mxGeometry x="420" width="120" height="60" as="geometry" />
        </mxCell>
        <mxCell id="bCE9dmYTB7Am4N8Ju9b3-9" value="&lt;font style=&quot;font-size: 22px;&quot;&gt;ссылка&lt;/font&gt;" style="rounded=0;whiteSpace=wrap;html=1;" parent="UA4lRzashmr38mbabIqv-3" vertex="1">
          <mxGeometry x="140" width="120" height="60" as="geometry" />
        </mxCell>
        <mxCell id="bCE9dmYTB7Am4N8Ju9b3-10" value="&lt;font style=&quot;font-size: 22px;&quot;&gt;ссылка&lt;/font&gt;" style="rounded=0;whiteSpace=wrap;html=1;" parent="UA4lRzashmr38mbabIqv-3" vertex="1">
          <mxGeometry width="120" height="60" as="geometry" />
        </mxCell>
        <mxCell id="UA4lRzashmr38mbabIqv-4" value="" style="group" vertex="1" connectable="0" parent="1">
          <mxGeometry y="690" width="827" height="90" as="geometry" />
        </mxCell>
        <mxCell id="UA4lRzashmr38mbabIqv-5" value="" style="group" vertex="1" connectable="0" parent="UA4lRzashmr38mbabIqv-4">
          <mxGeometry width="827" height="90" as="geometry" />
        </mxCell>
        <mxCell id="UA4lRzashmr38mbabIqv-6" value="" style="group" vertex="1" connectable="0" parent="UA4lRzashmr38mbabIqv-5">
          <mxGeometry width="827" height="90" as="geometry" />
        </mxCell>
        <mxCell id="bCE9dmYTB7Am4N8Ju9b3-69" value="" style="rounded=0;whiteSpace=wrap;html=1;fillStyle=auto;fillColor=none;" parent="UA4lRzashmr38mbabIqv-6" vertex="1">
          <mxGeometry width="827" height="90" as="geometry" />
        </mxCell>
        <mxCell id="bCE9dmYTB7Am4N8Ju9b3-70" value="&lt;font style=&quot;font-size: 22px;&quot;&gt;логотип&lt;/font&gt;" style="rounded=0;whiteSpace=wrap;html=1;" parent="UA4lRzashmr38mbabIqv-6" vertex="1">
          <mxGeometry x="354" y="15" width="120" height="60" as="geometry" />
        </mxCell>
      </root>
    </mxGraphModel>
  </diagram>
</mxfile>
